# xmcd
#
# Track frame offsets:
#	150
#	23522
#	42540
#	64097
#	84912
#	102027
#	122625
#	143242
#	166375
#	191337
#
# Disc length: 2785 seconds
#
# Revision: 2
# Processed by: cddbd v1.5.2PL0 Copyright (c) Steve Scherf et al.
# Submitted via: EZCDAudioConverter 2.8.1.1
#
DISCID=790adf0a
DTITLE=Chris Walker - Sincerely Yours
DYEAR=1993
DGENRE=R&B
TTITLE0=I Will Always Love You
TTITLE1=Your Love Is All I Know
TTITLE2=Call Me
TTITLE3=Everything Will Be Alright
TTITLE4=Do Me
TTITLE5=Someone To Love Me Forever
TTITLE6=Love Tonight
TTITLE7=How Do You Heal A Broken Heart
TTITLE8=It Won't Ever Go Away
TTITLE9=Love A Little Harder
EXTD=
EXTT0=
EXTT1=
EXTT2=
EXTT3=
EXTT4=
EXTT5=
EXTT6=
EXTT7=
EXTT8=
EXTT9=
PLAYORDER=
